<mxfile host="app.diagrams.net" modified="2024-03-20T03:24:43.498Z" agent="Mozilla/5.0 (Windows NT 10.0; Win64; x64) AppleWebKit/537.36 (KHTML, like Gecko) Chrome/122.0.0.0 Safari/537.36" etag="rgudfqixBuAQl0p7apXV" version="24.0.5" type="device">
  <diagram name="Page-1" id="My04iPDE87iwI_xUb_gP">
    <mxGraphModel dx="1322" dy="632" grid="1" gridSize="10" guides="1" tooltips="1" connect="1" arrows="1" fold="1" page="1" pageScale="1" pageWidth="2027" pageHeight="1169" math="0" shadow="0">
      <root>
        <mxCell id="0" />
        <mxCell id="1" parent="0" />
        <mxCell id="GmGY9-1nHvUCIWFC042A-16" value="" style="rounded=0;whiteSpace=wrap;html=1;" parent="1" vertex="1">
          <mxGeometry y="40" width="370" height="560" as="geometry" />
        </mxCell>
        <mxCell id="GmGY9-1nHvUCIWFC042A-20" value="Home Screen" style="text;html=1;strokeColor=none;fillColor=none;align=center;verticalAlign=middle;whiteSpace=wrap;rounded=0;" parent="1" vertex="1">
          <mxGeometry x="125" y="10" width="120" height="30" as="geometry" />
        </mxCell>
        <mxCell id="mo8nO4ta5W9fyB-Dc2Dk-6" value="Location" style="rounded=1;whiteSpace=wrap;html=1;" parent="1" vertex="1">
          <mxGeometry x="10" y="130" width="350" height="270" as="geometry" />
        </mxCell>
        <mxCell id="hwPYWvXYoMR_cGDD2TVB-1" value="All News" style="rounded=0;whiteSpace=wrap;html=1;" parent="1" vertex="1">
          <mxGeometry y="40" width="370" height="80" as="geometry" />
        </mxCell>
        <mxCell id="hwPYWvXYoMR_cGDD2TVB-6" value="Image" style="rounded=1;whiteSpace=wrap;html=1;" parent="1" vertex="1">
          <mxGeometry x="20" y="135" width="330" height="175" as="geometry" />
        </mxCell>
        <mxCell id="hwPYWvXYoMR_cGDD2TVB-7" value="" style="rounded=0;whiteSpace=wrap;html=1;" parent="1" vertex="1">
          <mxGeometry x="400" y="40" width="370" height="560" as="geometry" />
        </mxCell>
        <mxCell id="hwPYWvXYoMR_cGDD2TVB-8" value="News Details" style="text;html=1;strokeColor=none;fillColor=none;align=center;verticalAlign=middle;whiteSpace=wrap;rounded=0;" parent="1" vertex="1">
          <mxGeometry x="525" y="10" width="120" height="30" as="geometry" />
        </mxCell>
        <mxCell id="hwPYWvXYoMR_cGDD2TVB-10" value="Title" style="rounded=0;whiteSpace=wrap;html=1;" parent="1" vertex="1">
          <mxGeometry x="400" y="40" width="370" height="80" as="geometry" />
        </mxCell>
        <mxCell id="hwPYWvXYoMR_cGDD2TVB-21" value="Image" style="rounded=1;whiteSpace=wrap;html=1;" parent="1" vertex="1">
          <mxGeometry x="400" y="120" width="370" height="150" as="geometry" />
        </mxCell>
        <mxCell id="hwPYWvXYoMR_cGDD2TVB-23" value="Date" style="text;html=1;align=center;verticalAlign=middle;whiteSpace=wrap;rounded=0;" parent="1" vertex="1">
          <mxGeometry x="530" y="280" width="110" height="30" as="geometry" />
        </mxCell>
        <mxCell id="hwPYWvXYoMR_cGDD2TVB-24" value="Author" style="text;html=1;align=center;verticalAlign=middle;whiteSpace=wrap;rounded=0;" parent="1" vertex="1">
          <mxGeometry x="530" y="310" width="110" height="30" as="geometry" />
        </mxCell>
        <mxCell id="hwPYWvXYoMR_cGDD2TVB-25" value="Agency" style="text;html=1;align=center;verticalAlign=middle;whiteSpace=wrap;rounded=0;" parent="1" vertex="1">
          <mxGeometry x="530" y="335" width="110" height="30" as="geometry" />
        </mxCell>
        <mxCell id="hwPYWvXYoMR_cGDD2TVB-26" value="Description" style="text;html=1;align=center;verticalAlign=middle;whiteSpace=wrap;rounded=0;" parent="1" vertex="1">
          <mxGeometry x="410" y="390" width="350" height="200" as="geometry" />
        </mxCell>
        <mxCell id="0Xt-2iXutgbf465QwZSk-1" value="" style="endArrow=none;html=1;rounded=0;exitX=0;exitY=0.75;exitDx=0;exitDy=0;" edge="1" parent="1">
          <mxGeometry width="50" height="50" relative="1" as="geometry">
            <mxPoint x="10" y="80" as="sourcePoint" />
            <mxPoint x="30" y="80" as="targetPoint" />
          </mxGeometry>
        </mxCell>
        <mxCell id="0Xt-2iXutgbf465QwZSk-2" value="" style="endArrow=none;html=1;rounded=0;exitX=0;exitY=0.75;exitDx=0;exitDy=0;" edge="1" parent="1">
          <mxGeometry width="50" height="50" relative="1" as="geometry">
            <mxPoint x="10" y="85" as="sourcePoint" />
            <mxPoint x="30" y="85" as="targetPoint" />
          </mxGeometry>
        </mxCell>
        <mxCell id="0Xt-2iXutgbf465QwZSk-3" value="" style="endArrow=none;html=1;rounded=0;exitX=0;exitY=0.75;exitDx=0;exitDy=0;" edge="1" parent="1">
          <mxGeometry width="50" height="50" relative="1" as="geometry">
            <mxPoint x="10" y="90" as="sourcePoint" />
            <mxPoint x="30" y="90" as="targetPoint" />
          </mxGeometry>
        </mxCell>
        <mxCell id="0Xt-2iXutgbf465QwZSk-6" value="Title" style="text;html=1;align=center;verticalAlign=middle;whiteSpace=wrap;rounded=0;" vertex="1" parent="1">
          <mxGeometry x="155" y="320" width="60" height="30" as="geometry" />
        </mxCell>
        <mxCell id="0Xt-2iXutgbf465QwZSk-7" value="Date" style="text;html=1;align=center;verticalAlign=middle;whiteSpace=wrap;rounded=0;" vertex="1" parent="1">
          <mxGeometry x="155" y="360" width="60" height="30" as="geometry" />
        </mxCell>
        <mxCell id="0Xt-2iXutgbf465QwZSk-8" value="Location" style="rounded=1;whiteSpace=wrap;html=1;" vertex="1" parent="1">
          <mxGeometry x="10" y="410" width="350" height="130" as="geometry" />
        </mxCell>
        <mxCell id="0Xt-2iXutgbf465QwZSk-9" value="Image" style="rounded=1;whiteSpace=wrap;html=1;" vertex="1" parent="1">
          <mxGeometry x="20" y="415" width="330" height="125" as="geometry" />
        </mxCell>
        <mxCell id="0Xt-2iXutgbf465QwZSk-13" value="US News" style="rounded=0;whiteSpace=wrap;html=1;" vertex="1" parent="1">
          <mxGeometry y="540" width="120" height="60" as="geometry" />
        </mxCell>
        <mxCell id="0Xt-2iXutgbf465QwZSk-14" value="World News" style="rounded=0;whiteSpace=wrap;html=1;" vertex="1" parent="1">
          <mxGeometry x="120" y="540" width="130" height="60" as="geometry" />
        </mxCell>
        <mxCell id="0Xt-2iXutgbf465QwZSk-15" value="Tech News" style="rounded=0;whiteSpace=wrap;html=1;" vertex="1" parent="1">
          <mxGeometry x="250" y="540" width="120" height="60" as="geometry" />
        </mxCell>
        <mxCell id="0Xt-2iXutgbf465QwZSk-16" value="" style="endArrow=classic;html=1;rounded=0;" edge="1" parent="1">
          <mxGeometry width="50" height="50" relative="1" as="geometry">
            <mxPoint x="440" y="80" as="sourcePoint" />
            <mxPoint x="410" y="79.66" as="targetPoint" />
          </mxGeometry>
        </mxCell>
        <mxCell id="0Xt-2iXutgbf465QwZSk-18" value="" style="html=1;dashed=0;aspect=fixed;verticalLabelPosition=bottom;verticalAlign=top;align=center;shape=mxgraph.gmdl.bookmark;strokeColor=none;fillColor=#737373;shadow=0;sketch=0;" vertex="1" parent="1">
          <mxGeometry x="740" y="70" width="12" height="20" as="geometry" />
        </mxCell>
      </root>
    </mxGraphModel>
  </diagram>
</mxfile>
